<mxfile host="app.diagrams.net" modified="2024-06-12T14:42:58.680Z" agent="Mozilla/5.0 (Windows NT 10.0; Win64; x64) AppleWebKit/537.36 (KHTML, like Gecko) Chrome/125.0.0.0 Safari/537.36" etag="t9BgKvytbcqobKUP_crz" version="24.5.3" type="google">
  <diagram name="User" id="tBk9dFrOyf1Hu1sL3p-m">
    <mxGraphModel grid="1" page="1" gridSize="10" guides="1" tooltips="1" connect="1" arrows="1" fold="1" pageScale="1" pageWidth="200000" pageHeight="200000" math="0" shadow="0">
      <root>
        <mxCell id="rN9Azcau8fFEEphBLJp2-0" />
        <mxCell id="rN9Azcau8fFEEphBLJp2-1" parent="rN9Azcau8fFEEphBLJp2-0" />
        <mxCell id="rN9Azcau8fFEEphBLJp2-2" value="&lt;font style=&quot;vertical-align: inherit;&quot;&gt;&lt;font style=&quot;vertical-align: inherit;&quot;&gt;USER&lt;/font&gt;&lt;/font&gt;" style="shape=umlActor;verticalLabelPosition=bottom;verticalAlign=top;html=1;" vertex="1" parent="rN9Azcau8fFEEphBLJp2-1">
          <mxGeometry x="40" y="335" width="30" height="60" as="geometry" />
        </mxCell>
        <mxCell id="rN9Azcau8fFEEphBLJp2-3" value="CU2:Inicio Sesion" style="ellipse;whiteSpace=wrap;html=1;" vertex="1" parent="rN9Azcau8fFEEphBLJp2-1">
          <mxGeometry x="170" y="347.5" width="70" height="45" as="geometry" />
        </mxCell>
        <mxCell id="rN9Azcau8fFEEphBLJp2-4" value="cu1:Registo" style="ellipse;whiteSpace=wrap;html=1;" vertex="1" parent="rN9Azcau8fFEEphBLJp2-1">
          <mxGeometry x="160" y="240" width="80" height="30" as="geometry" />
        </mxCell>
        <mxCell id="rN9Azcau8fFEEphBLJp2-5" value="" style="endArrow=block;startArrow=block;endFill=1;startFill=1;html=1;rounded=0;entryX=0.443;entryY=-0.014;entryDx=0;entryDy=0;entryPerimeter=0;" edge="1" parent="rN9Azcau8fFEEphBLJp2-1" source="rN9Azcau8fFEEphBLJp2-4" target="rN9Azcau8fFEEphBLJp2-3">
          <mxGeometry width="160" relative="1" as="geometry">
            <mxPoint x="200" y="210" as="sourcePoint" />
            <mxPoint x="200" y="370" as="targetPoint" />
          </mxGeometry>
        </mxCell>
        <mxCell id="rN9Azcau8fFEEphBLJp2-6" value="CU3:Soliciud afiliaciÃ³n" style="ellipse;whiteSpace=wrap;html=1;" vertex="1" parent="rN9Azcau8fFEEphBLJp2-1">
          <mxGeometry x="280" y="280" width="80" height="40" as="geometry" />
        </mxCell>
        <mxCell id="rN9Azcau8fFEEphBLJp2-7" value="CU4:Solicitud Citas" style="ellipse;whiteSpace=wrap;html=1;" vertex="1" parent="rN9Azcau8fFEEphBLJp2-1">
          <mxGeometry x="280" y="352.5" width="80" height="40" as="geometry" />
        </mxCell>
        <mxCell id="rN9Azcau8fFEEphBLJp2-8" value="CU5: Solicitud examenes" style="ellipse;whiteSpace=wrap;html=1;" vertex="1" parent="rN9Azcau8fFEEphBLJp2-1">
          <mxGeometry x="280" y="420" width="80" height="40" as="geometry" />
        </mxCell>
        <mxCell id="rN9Azcau8fFEEphBLJp2-10" value="Extends" style="endArrow=block;endSize=16;endFill=0;html=1;rounded=0;" edge="1" parent="rN9Azcau8fFEEphBLJp2-1">
          <mxGeometry width="160" relative="1" as="geometry">
            <mxPoint x="70" y="370" as="sourcePoint" />
            <mxPoint x="170" y="370" as="targetPoint" />
          </mxGeometry>
        </mxCell>
        <mxCell id="rN9Azcau8fFEEphBLJp2-11" value="Use" style="endArrow=open;endSize=12;dashed=1;html=1;rounded=0;" edge="1" parent="rN9Azcau8fFEEphBLJp2-1" source="rN9Azcau8fFEEphBLJp2-3">
          <mxGeometry width="160" relative="1" as="geometry">
            <mxPoint x="240" y="370" as="sourcePoint" />
            <mxPoint x="280" y="370" as="targetPoint" />
          </mxGeometry>
        </mxCell>
        <mxCell id="rN9Azcau8fFEEphBLJp2-12" value="Use" style="endArrow=open;endSize=12;dashed=1;html=1;rounded=0;" edge="1" parent="rN9Azcau8fFEEphBLJp2-1" source="rN9Azcau8fFEEphBLJp2-3" target="rN9Azcau8fFEEphBLJp2-6">
          <mxGeometry width="160" relative="1" as="geometry">
            <mxPoint x="240" y="370" as="sourcePoint" />
            <mxPoint x="400" y="370" as="targetPoint" />
          </mxGeometry>
        </mxCell>
        <mxCell id="rN9Azcau8fFEEphBLJp2-13" value="Use" style="endArrow=open;endSize=12;dashed=1;html=1;rounded=0;exitX=0.94;exitY=0.797;exitDx=0;exitDy=0;exitPerimeter=0;entryX=0.258;entryY=0.136;entryDx=0;entryDy=0;entryPerimeter=0;" edge="1" parent="rN9Azcau8fFEEphBLJp2-1" source="rN9Azcau8fFEEphBLJp2-3" target="rN9Azcau8fFEEphBLJp2-8">
          <mxGeometry width="160" relative="1" as="geometry">
            <mxPoint x="220" y="400" as="sourcePoint" />
            <mxPoint x="280" y="440" as="targetPoint" />
          </mxGeometry>
        </mxCell>
        <mxCell id="rN9Azcau8fFEEphBLJp2-14" value="CU8: Lectura de resultados" style="ellipse;whiteSpace=wrap;html=1;" vertex="1" parent="rN9Azcau8fFEEphBLJp2-1">
          <mxGeometry x="560" y="500" width="100" height="40" as="geometry" />
        </mxCell>
        <mxCell id="rN9Azcau8fFEEphBLJp2-15" value="Extends" style="endArrow=block;endSize=16;endFill=0;html=1;rounded=0;" edge="1" parent="rN9Azcau8fFEEphBLJp2-1" source="rN9Azcau8fFEEphBLJp2-8" target="rN9Azcau8fFEEphBLJp2-14">
          <mxGeometry width="160" relative="1" as="geometry">
            <mxPoint x="360" y="440" as="sourcePoint" />
            <mxPoint x="437.6000847997457" y="469.4000211999364" as="targetPoint" />
          </mxGeometry>
        </mxCell>
        <mxCell id="rN9Azcau8fFEEphBLJp2-16" value="Extends" style="endArrow=block;endSize=16;endFill=0;html=1;rounded=0;" edge="1" parent="rN9Azcau8fFEEphBLJp2-1" source="rN9Azcau8fFEEphBLJp2-7" target="rN9Azcau8fFEEphBLJp2-27">
          <mxGeometry width="160" relative="1" as="geometry">
            <mxPoint x="360" y="372.5" as="sourcePoint" />
            <mxPoint x="430.015617679594" y="370.6248047790051" as="targetPoint" />
          </mxGeometry>
        </mxCell>
        <mxCell id="rN9Azcau8fFEEphBLJp2-21" value="CU9:Bases de datos" style="ellipse;whiteSpace=wrap;html=1;" vertex="1" parent="rN9Azcau8fFEEphBLJp2-1">
          <mxGeometry x="200" y="470" width="90" height="70" as="geometry" />
        </mxCell>
        <mxCell id="rN9Azcau8fFEEphBLJp2-22" value="Use" style="endArrow=open;endSize=12;dashed=1;html=1;rounded=0;" edge="1" parent="rN9Azcau8fFEEphBLJp2-1" source="rN9Azcau8fFEEphBLJp2-3" target="rN9Azcau8fFEEphBLJp2-21">
          <mxGeometry width="160" relative="1" as="geometry">
            <mxPoint x="70" y="519.66" as="sourcePoint" />
            <mxPoint x="230" y="519.66" as="targetPoint" />
          </mxGeometry>
        </mxCell>
        <mxCell id="rN9Azcau8fFEEphBLJp2-23" value="CU10: Historial medico paciente" style="ellipse;whiteSpace=wrap;html=1;" vertex="1" parent="rN9Azcau8fFEEphBLJp2-1">
          <mxGeometry x="210" y="580" width="90" height="60" as="geometry" />
        </mxCell>
        <mxCell id="rN9Azcau8fFEEphBLJp2-24" value="Use" style="endArrow=open;endSize=12;dashed=1;html=1;rounded=0;exitX=0.559;exitY=1.048;exitDx=0;exitDy=0;exitPerimeter=0;" edge="1" parent="rN9Azcau8fFEEphBLJp2-1" source="rN9Azcau8fFEEphBLJp2-21" target="rN9Azcau8fFEEphBLJp2-23">
          <mxGeometry width="160" relative="1" as="geometry">
            <mxPoint x="260" y="550" as="sourcePoint" />
            <mxPoint x="420" y="550" as="targetPoint" />
          </mxGeometry>
        </mxCell>
        <mxCell id="rN9Azcau8fFEEphBLJp2-27" value="CU12:Receta de medicamentos&lt;div&gt;&lt;br&gt;&lt;/div&gt;" style="ellipse;whiteSpace=wrap;html=1;" vertex="1" parent="rN9Azcau8fFEEphBLJp2-1">
          <mxGeometry x="620" y="353" width="110" height="47" as="geometry" />
        </mxCell>
        <mxCell id="rN9Azcau8fFEEphBLJp2-29" value="CU13:Autorizacion de medicamentos&amp;nbsp;" style="ellipse;whiteSpace=wrap;html=1;" vertex="1" parent="rN9Azcau8fFEEphBLJp2-1">
          <mxGeometry x="770" y="350" width="120" height="60" as="geometry" />
        </mxCell>
        <mxCell id="rN9Azcau8fFEEphBLJp2-30" value="Use" style="endArrow=open;endSize=12;dashed=1;html=1;rounded=0;" edge="1" parent="rN9Azcau8fFEEphBLJp2-1" source="rN9Azcau8fFEEphBLJp2-27" target="rN9Azcau8fFEEphBLJp2-29">
          <mxGeometry width="160" relative="1" as="geometry">
            <mxPoint x="690" y="440" as="sourcePoint" />
            <mxPoint x="850" y="440" as="targetPoint" />
          </mxGeometry>
        </mxCell>
        <mxCell id="rN9Azcau8fFEEphBLJp2-33" value="CU16: Copago" style="ellipse;whiteSpace=wrap;html=1;" vertex="1" parent="rN9Azcau8fFEEphBLJp2-1">
          <mxGeometry x="620" y="175" width="90" height="45" as="geometry" />
        </mxCell>
        <mxCell id="rN9Azcau8fFEEphBLJp2-34" value="Use" style="endArrow=open;endSize=12;dashed=1;html=1;rounded=0;entryX=0.452;entryY=1.044;entryDx=0;entryDy=0;entryPerimeter=0;" edge="1" parent="rN9Azcau8fFEEphBLJp2-1" source="rN9Azcau8fFEEphBLJp2-7" target="rN9Azcau8fFEEphBLJp2-33">
          <mxGeometry width="160" relative="1" as="geometry">
            <mxPoint x="501.29999999999995" y="348.9" as="sourcePoint" />
            <mxPoint x="660" y="340" as="targetPoint" />
          </mxGeometry>
        </mxCell>
        <mxCell id="rN9Azcau8fFEEphBLJp2-35" value="Use" style="endArrow=open;endSize=12;dashed=1;html=1;rounded=0;entryX=0;entryY=0.5;entryDx=0;entryDy=0;" edge="1" parent="rN9Azcau8fFEEphBLJp2-1" source="rN9Azcau8fFEEphBLJp2-6" target="rN9Azcau8fFEEphBLJp2-33">
          <mxGeometry width="160" relative="1" as="geometry">
            <mxPoint x="500" y="210" as="sourcePoint" />
            <mxPoint x="660" y="210" as="targetPoint" />
          </mxGeometry>
        </mxCell>
        <mxCell id="rN9Azcau8fFEEphBLJp2-36" value="Use" style="endArrow=open;endSize=12;dashed=1;html=1;rounded=0;entryX=0.781;entryY=0.907;entryDx=0;entryDy=0;entryPerimeter=0;exitX=0.451;exitY=0.005;exitDx=0;exitDy=0;exitPerimeter=0;" edge="1" parent="rN9Azcau8fFEEphBLJp2-1" source="rN9Azcau8fFEEphBLJp2-29" target="rN9Azcau8fFEEphBLJp2-33">
          <mxGeometry width="160" relative="1" as="geometry">
            <mxPoint x="720" y="280" as="sourcePoint" />
            <mxPoint x="880" y="280" as="targetPoint" />
          </mxGeometry>
        </mxCell>
      </root>
    </mxGraphModel>
  </diagram>
</mxfile>
